<mxfile host="app.diagrams.net" modified="2021-10-13T09:38:28.275Z" agent="5.0 (Windows NT 10.0; Win64; x64) AppleWebKit/537.36 (KHTML, like Gecko) Chrome/94.0.4606.81 Safari/537.36" etag="c89V5uIxJwrznturGt0K" version="15.3.0" type="github">
  <diagram id="tyzSk7_lH9VJJXgL34DW" name="Page-1">
    <mxGraphModel dx="1673" dy="896" grid="1" gridSize="10" guides="1" tooltips="1" connect="1" arrows="1" fold="1" page="1" pageScale="1" pageWidth="1169" pageHeight="1654" math="0" shadow="0">
      <root>
        <mxCell id="0" />
        <mxCell id="1" parent="0" />
        <mxCell id="exUFgxOLjet-AzG1wuCk-4" value="" style="edgeStyle=orthogonalEdgeStyle;rounded=0;orthogonalLoop=1;jettySize=auto;html=1;startArrow=none;" parent="1" source="exUFgxOLjet-AzG1wuCk-5" target="exUFgxOLjet-AzG1wuCk-3" edge="1">
          <mxGeometry relative="1" as="geometry" />
        </mxCell>
        <mxCell id="exUFgxOLjet-AzG1wuCk-6" value="" style="edgeStyle=orthogonalEdgeStyle;rounded=0;orthogonalLoop=1;jettySize=auto;html=1;" parent="1" source="exUFgxOLjet-AzG1wuCk-1" target="exUFgxOLjet-AzG1wuCk-5" edge="1">
          <mxGeometry relative="1" as="geometry" />
        </mxCell>
        <mxCell id="exUFgxOLjet-AzG1wuCk-8" value="" style="edgeStyle=orthogonalEdgeStyle;rounded=0;orthogonalLoop=1;jettySize=auto;html=1;" parent="1" source="exUFgxOLjet-AzG1wuCk-1" target="exUFgxOLjet-AzG1wuCk-5" edge="1">
          <mxGeometry relative="1" as="geometry" />
        </mxCell>
        <mxCell id="exUFgxOLjet-AzG1wuCk-13" value="" style="edgeStyle=orthogonalEdgeStyle;rounded=0;orthogonalLoop=1;jettySize=auto;html=1;" parent="1" source="exUFgxOLjet-AzG1wuCk-1" target="exUFgxOLjet-AzG1wuCk-12" edge="1">
          <mxGeometry relative="1" as="geometry" />
        </mxCell>
        <mxCell id="exUFgxOLjet-AzG1wuCk-1" value="导入文件" style="rounded=0;whiteSpace=wrap;html=1;fillColor=#00CC00;" parent="1" vertex="1">
          <mxGeometry x="870" y="240" width="120" height="60" as="geometry" />
        </mxCell>
        <mxCell id="exUFgxOLjet-AzG1wuCk-16" value="" style="edgeStyle=orthogonalEdgeStyle;rounded=0;orthogonalLoop=1;jettySize=auto;html=1;startArrow=none;exitX=0;exitY=0.5;exitDx=0;exitDy=0;" parent="1" source="g0_fx2HfrhNK7-xycyEK-6" target="exUFgxOLjet-AzG1wuCk-15" edge="1">
          <mxGeometry relative="1" as="geometry" />
        </mxCell>
        <mxCell id="g0_fx2HfrhNK7-xycyEK-10" value="否" style="edgeLabel;html=1;align=center;verticalAlign=middle;resizable=0;points=[];" vertex="1" connectable="0" parent="exUFgxOLjet-AzG1wuCk-16">
          <mxGeometry x="-0.0056" y="1" relative="1" as="geometry">
            <mxPoint x="-1" y="41" as="offset" />
          </mxGeometry>
        </mxCell>
        <mxCell id="g0_fx2HfrhNK7-xycyEK-7" value="" style="edgeStyle=orthogonalEdgeStyle;rounded=0;orthogonalLoop=1;jettySize=auto;html=1;" edge="1" parent="1" source="exUFgxOLjet-AzG1wuCk-3" target="g0_fx2HfrhNK7-xycyEK-6">
          <mxGeometry relative="1" as="geometry" />
        </mxCell>
        <mxCell id="g0_fx2HfrhNK7-xycyEK-24" style="edgeStyle=orthogonalEdgeStyle;rounded=0;orthogonalLoop=1;jettySize=auto;html=1;entryX=0;entryY=0.5;entryDx=0;entryDy=0;" edge="1" parent="1" source="exUFgxOLjet-AzG1wuCk-3" target="g0_fx2HfrhNK7-xycyEK-23">
          <mxGeometry relative="1" as="geometry" />
        </mxCell>
        <mxCell id="exUFgxOLjet-AzG1wuCk-3" value="一些必填字段校验" style="whiteSpace=wrap;html=1;rounded=0;" parent="1" vertex="1">
          <mxGeometry x="870" y="550" width="120" height="60" as="geometry" />
        </mxCell>
        <mxCell id="exUFgxOLjet-AzG1wuCk-5" value="前端根据各个文件的特征字段来判断导入何种文件，可得出除可转债的其他三个的市场编码" style="ellipse;whiteSpace=wrap;html=1;rounded=0;" parent="1" vertex="1">
          <mxGeometry x="840" y="420" width="180" height="100" as="geometry" />
        </mxCell>
        <mxCell id="exUFgxOLjet-AzG1wuCk-7" value="" style="edgeStyle=orthogonalEdgeStyle;rounded=0;orthogonalLoop=1;jettySize=auto;html=1;endArrow=none;startArrow=none;" parent="1" source="exUFgxOLjet-AzG1wuCk-12" target="exUFgxOLjet-AzG1wuCk-5" edge="1">
          <mxGeometry relative="1" as="geometry">
            <mxPoint x="930" y="300" as="sourcePoint" />
            <mxPoint x="920" y="620" as="targetPoint" />
          </mxGeometry>
        </mxCell>
        <mxCell id="g0_fx2HfrhNK7-xycyEK-21" style="edgeStyle=orthogonalEdgeStyle;rounded=0;orthogonalLoop=1;jettySize=auto;html=1;" edge="1" parent="1" source="exUFgxOLjet-AzG1wuCk-12">
          <mxGeometry relative="1" as="geometry">
            <mxPoint x="1210" y="370" as="targetPoint" />
          </mxGeometry>
        </mxCell>
        <mxCell id="exUFgxOLjet-AzG1wuCk-12" value="文件名校验" style="ellipse;whiteSpace=wrap;html=1;rounded=0;" parent="1" vertex="1">
          <mxGeometry x="870" y="340" width="120" height="60" as="geometry" />
        </mxCell>
        <mxCell id="exUFgxOLjet-AzG1wuCk-14" value="" style="edgeStyle=orthogonalEdgeStyle;rounded=0;orthogonalLoop=1;jettySize=auto;html=1;endArrow=none;" parent="1" source="exUFgxOLjet-AzG1wuCk-1" target="exUFgxOLjet-AzG1wuCk-12" edge="1">
          <mxGeometry relative="1" as="geometry">
            <mxPoint x="930" y="300" as="sourcePoint" />
            <mxPoint x="930" y="440" as="targetPoint" />
          </mxGeometry>
        </mxCell>
        <mxCell id="g0_fx2HfrhNK7-xycyEK-27" style="edgeStyle=orthogonalEdgeStyle;rounded=0;orthogonalLoop=1;jettySize=auto;html=1;entryX=0.5;entryY=0;entryDx=0;entryDy=0;" edge="1" parent="1" source="exUFgxOLjet-AzG1wuCk-15" target="g0_fx2HfrhNK7-xycyEK-23">
          <mxGeometry relative="1" as="geometry">
            <mxPoint x="1210" y="540" as="targetPoint" />
            <Array as="points">
              <mxPoint x="620" y="940" />
              <mxPoint x="620" y="120" />
              <mxPoint x="1210" y="120" />
            </Array>
          </mxGeometry>
        </mxCell>
        <mxCell id="g0_fx2HfrhNK7-xycyEK-30" value="没有获取到数据" style="edgeLabel;html=1;align=center;verticalAlign=middle;resizable=0;points=[];" vertex="1" connectable="0" parent="g0_fx2HfrhNK7-xycyEK-27">
          <mxGeometry x="-0.9475" y="1" relative="1" as="geometry">
            <mxPoint x="-11" as="offset" />
          </mxGeometry>
        </mxCell>
        <mxCell id="g0_fx2HfrhNK7-xycyEK-29" style="edgeStyle=orthogonalEdgeStyle;rounded=0;orthogonalLoop=1;jettySize=auto;html=1;" edge="1" parent="1" source="exUFgxOLjet-AzG1wuCk-15">
          <mxGeometry relative="1" as="geometry">
            <mxPoint x="820" y="1200" as="targetPoint" />
          </mxGeometry>
        </mxCell>
        <mxCell id="exUFgxOLjet-AzG1wuCk-15" value="通过证券代码和市场编号从接口拿到申购指令列表" style="rounded=0;whiteSpace=wrap;html=1;" parent="1" vertex="1">
          <mxGeometry x="760" y="910" width="120" height="60" as="geometry" />
        </mxCell>
        <mxCell id="exUFgxOLjet-AzG1wuCk-20" value="" style="edgeStyle=orthogonalEdgeStyle;rounded=0;orthogonalLoop=1;jettySize=auto;html=1;" parent="1" source="exUFgxOLjet-AzG1wuCk-17" target="exUFgxOLjet-AzG1wuCk-19" edge="1">
          <mxGeometry relative="1" as="geometry" />
        </mxCell>
        <mxCell id="g0_fx2HfrhNK7-xycyEK-31" style="edgeStyle=orthogonalEdgeStyle;rounded=0;orthogonalLoop=1;jettySize=auto;html=1;" edge="1" parent="1" source="exUFgxOLjet-AzG1wuCk-17">
          <mxGeometry relative="1" as="geometry">
            <mxPoint x="620" y="910" as="targetPoint" />
            <Array as="points">
              <mxPoint x="620" y="1230" />
            </Array>
          </mxGeometry>
        </mxCell>
        <mxCell id="g0_fx2HfrhNK7-xycyEK-33" value="没有可执行确认的指令" style="edgeLabel;html=1;align=center;verticalAlign=middle;resizable=0;points=[];" vertex="1" connectable="0" parent="g0_fx2HfrhNK7-xycyEK-31">
          <mxGeometry x="-0.813" relative="1" as="geometry">
            <mxPoint x="-27" as="offset" />
          </mxGeometry>
        </mxCell>
        <mxCell id="exUFgxOLjet-AzG1wuCk-17" value="判断列表中筛选出可执行确认的指令" style="rounded=0;whiteSpace=wrap;html=1;" parent="1" vertex="1">
          <mxGeometry x="760" y="1200" width="120" height="60" as="geometry" />
        </mxCell>
        <mxCell id="exUFgxOLjet-AzG1wuCk-22" value="" style="edgeStyle=orthogonalEdgeStyle;rounded=0;orthogonalLoop=1;jettySize=auto;html=1;" parent="1" source="exUFgxOLjet-AzG1wuCk-19" target="exUFgxOLjet-AzG1wuCk-21" edge="1">
          <mxGeometry relative="1" as="geometry" />
        </mxCell>
        <mxCell id="exUFgxOLjet-AzG1wuCk-19" value="指令序号去重，调用接口offlineapplyquery查询出对应的配置对象" style="rounded=0;whiteSpace=wrap;html=1;" parent="1" vertex="1">
          <mxGeometry x="960" y="1200" width="120" height="60" as="geometry" />
        </mxCell>
        <mxCell id="exUFgxOLjet-AzG1wuCk-24" value="" style="edgeStyle=orthogonalEdgeStyle;rounded=0;orthogonalLoop=1;jettySize=auto;html=1;" parent="1" source="exUFgxOLjet-AzG1wuCk-21" target="exUFgxOLjet-AzG1wuCk-23" edge="1">
          <mxGeometry relative="1" as="geometry">
            <Array as="points">
              <mxPoint x="1450" y="900" />
            </Array>
          </mxGeometry>
        </mxCell>
        <mxCell id="g0_fx2HfrhNK7-xycyEK-36" value="N" style="edgeLabel;html=1;align=center;verticalAlign=middle;resizable=0;points=[];" vertex="1" connectable="0" parent="exUFgxOLjet-AzG1wuCk-24">
          <mxGeometry x="-0.6836" relative="1" as="geometry">
            <mxPoint as="offset" />
          </mxGeometry>
        </mxCell>
        <mxCell id="exUFgxOLjet-AzG1wuCk-26" value="" style="edgeStyle=orthogonalEdgeStyle;rounded=0;orthogonalLoop=1;jettySize=auto;html=1;" parent="1" source="exUFgxOLjet-AzG1wuCk-21" target="exUFgxOLjet-AzG1wuCk-25" edge="1">
          <mxGeometry relative="1" as="geometry">
            <Array as="points">
              <mxPoint x="1920" y="1230" />
            </Array>
          </mxGeometry>
        </mxCell>
        <mxCell id="g0_fx2HfrhNK7-xycyEK-37" value="Y" style="edgeLabel;html=1;align=center;verticalAlign=middle;resizable=0;points=[];" vertex="1" connectable="0" parent="exUFgxOLjet-AzG1wuCk-26">
          <mxGeometry x="-0.6901" y="-1" relative="1" as="geometry">
            <mxPoint x="71" y="-1" as="offset" />
          </mxGeometry>
        </mxCell>
        <mxCell id="exUFgxOLjet-AzG1wuCk-21" value="判断文件中每一个配售对象是否在系统中都存在，且相应的股东配置正确" style="whiteSpace=wrap;html=1;rounded=0;" parent="1" vertex="1">
          <mxGeometry x="1390" y="1200" width="120" height="60" as="geometry" />
        </mxCell>
        <mxCell id="g0_fx2HfrhNK7-xycyEK-3" style="edgeStyle=orthogonalEdgeStyle;rounded=0;orthogonalLoop=1;jettySize=auto;html=1;" edge="1" parent="1" source="exUFgxOLjet-AzG1wuCk-23" target="g0_fx2HfrhNK7-xycyEK-1">
          <mxGeometry relative="1" as="geometry">
            <Array as="points">
              <mxPoint x="1730" y="580" />
            </Array>
          </mxGeometry>
        </mxCell>
        <mxCell id="exUFgxOLjet-AzG1wuCk-23" value="报错" style="ellipse;whiteSpace=wrap;html=1;rounded=0;fillColor=#FF3333;" parent="1" vertex="1">
          <mxGeometry x="1670" y="870" width="120" height="60" as="geometry" />
        </mxCell>
        <mxCell id="exUFgxOLjet-AzG1wuCk-28" value="" style="edgeStyle=orthogonalEdgeStyle;rounded=0;orthogonalLoop=1;jettySize=auto;html=1;" parent="1" source="exUFgxOLjet-AzG1wuCk-25" target="exUFgxOLjet-AzG1wuCk-27" edge="1">
          <mxGeometry relative="1" as="geometry" />
        </mxCell>
        <mxCell id="exUFgxOLjet-AzG1wuCk-25" value="利用接口查询出的配售对象的产品id去匹配可执行指令列表数据" style="whiteSpace=wrap;html=1;rounded=0;" parent="1" vertex="1">
          <mxGeometry x="1860" y="620" width="120" height="60" as="geometry" />
        </mxCell>
        <mxCell id="exUFgxOLjet-AzG1wuCk-30" value="" style="edgeStyle=orthogonalEdgeStyle;rounded=0;orthogonalLoop=1;jettySize=auto;html=1;" parent="1" source="exUFgxOLjet-AzG1wuCk-27" target="exUFgxOLjet-AzG1wuCk-29" edge="1">
          <mxGeometry relative="1" as="geometry" />
        </mxCell>
        <mxCell id="exUFgxOLjet-AzG1wuCk-27" value="参数拼接" style="whiteSpace=wrap;html=1;rounded=0;" parent="1" vertex="1">
          <mxGeometry x="1860" y="420" width="120" height="60" as="geometry" />
        </mxCell>
        <mxCell id="exUFgxOLjet-AzG1wuCk-32" value="" style="edgeStyle=orthogonalEdgeStyle;rounded=0;orthogonalLoop=1;jettySize=auto;html=1;" parent="1" source="exUFgxOLjet-AzG1wuCk-29" target="exUFgxOLjet-AzG1wuCk-31" edge="1">
          <mxGeometry relative="1" as="geometry" />
        </mxCell>
        <mxCell id="exUFgxOLjet-AzG1wuCk-29" value="通过5200222进行执行确认" style="whiteSpace=wrap;html=1;rounded=0;" parent="1" vertex="1">
          <mxGeometry x="1860" y="250" width="120" height="60" as="geometry" />
        </mxCell>
        <mxCell id="g0_fx2HfrhNK7-xycyEK-5" style="edgeStyle=orthogonalEdgeStyle;rounded=0;orthogonalLoop=1;jettySize=auto;html=1;entryX=0.5;entryY=0;entryDx=0;entryDy=0;" edge="1" parent="1" source="exUFgxOLjet-AzG1wuCk-31" target="g0_fx2HfrhNK7-xycyEK-1">
          <mxGeometry relative="1" as="geometry" />
        </mxCell>
        <mxCell id="exUFgxOLjet-AzG1wuCk-31" value="反馈执行结果" style="ellipse;whiteSpace=wrap;html=1;rounded=0;fillColor=#FFFF00;" parent="1" vertex="1">
          <mxGeometry x="1660" y="250" width="120" height="60" as="geometry" />
        </mxCell>
        <mxCell id="g0_fx2HfrhNK7-xycyEK-1" value="结束" style="ellipse;whiteSpace=wrap;html=1;fillColor=#CCCCCC;" vertex="1" parent="1">
          <mxGeometry x="1410" y="540" width="120" height="80" as="geometry" />
        </mxCell>
        <mxCell id="g0_fx2HfrhNK7-xycyEK-15" style="edgeStyle=orthogonalEdgeStyle;rounded=0;orthogonalLoop=1;jettySize=auto;html=1;exitX=1;exitY=0.5;exitDx=0;exitDy=0;" edge="1" parent="1">
          <mxGeometry relative="1" as="geometry">
            <mxPoint x="971" y="680" as="sourcePoint" />
            <mxPoint x="1011" y="840" as="targetPoint" />
          </mxGeometry>
        </mxCell>
        <mxCell id="g0_fx2HfrhNK7-xycyEK-26" value="是" style="edgeLabel;html=1;align=center;verticalAlign=middle;resizable=0;points=[];" vertex="1" connectable="0" parent="g0_fx2HfrhNK7-xycyEK-15">
          <mxGeometry x="-0.0148" y="2" relative="1" as="geometry">
            <mxPoint x="-2" y="17" as="offset" />
          </mxGeometry>
        </mxCell>
        <mxCell id="g0_fx2HfrhNK7-xycyEK-6" value="是否可转债" style="rhombus;whiteSpace=wrap;html=1;rounded=0;" vertex="1" parent="1">
          <mxGeometry x="890" y="640" width="80" height="80" as="geometry" />
        </mxCell>
        <mxCell id="g0_fx2HfrhNK7-xycyEK-8" value="" style="edgeStyle=orthogonalEdgeStyle;rounded=0;orthogonalLoop=1;jettySize=auto;html=1;endArrow=none;" edge="1" parent="1" source="exUFgxOLjet-AzG1wuCk-3" target="g0_fx2HfrhNK7-xycyEK-6">
          <mxGeometry relative="1" as="geometry">
            <mxPoint x="930" y="610" as="sourcePoint" />
            <mxPoint x="930" y="690" as="targetPoint" />
          </mxGeometry>
        </mxCell>
        <mxCell id="g0_fx2HfrhNK7-xycyEK-39" style="edgeStyle=orthogonalEdgeStyle;rounded=0;orthogonalLoop=1;jettySize=auto;html=1;" edge="1" parent="1" source="g0_fx2HfrhNK7-xycyEK-11">
          <mxGeometry relative="1" as="geometry">
            <mxPoint x="890" y="940" as="targetPoint" />
            <Array as="points">
              <mxPoint x="1010" y="940" />
              <mxPoint x="900" y="940" />
            </Array>
          </mxGeometry>
        </mxCell>
        <mxCell id="g0_fx2HfrhNK7-xycyEK-11" value="通过stockholder_id获取市场编号" style="rounded=0;whiteSpace=wrap;html=1;fillColor=none;" vertex="1" parent="1">
          <mxGeometry x="950" y="840" width="120" height="60" as="geometry" />
        </mxCell>
        <mxCell id="g0_fx2HfrhNK7-xycyEK-25" style="edgeStyle=orthogonalEdgeStyle;rounded=0;orthogonalLoop=1;jettySize=auto;html=1;entryX=0;entryY=0.5;entryDx=0;entryDy=0;" edge="1" parent="1" source="g0_fx2HfrhNK7-xycyEK-23" target="g0_fx2HfrhNK7-xycyEK-1">
          <mxGeometry relative="1" as="geometry">
            <mxPoint x="1390" y="580" as="targetPoint" />
          </mxGeometry>
        </mxCell>
        <mxCell id="g0_fx2HfrhNK7-xycyEK-23" value="报错" style="ellipse;whiteSpace=wrap;html=1;rounded=0;fillColor=#FF3333;" vertex="1" parent="1">
          <mxGeometry x="1150" y="550" width="120" height="60" as="geometry" />
        </mxCell>
      </root>
    </mxGraphModel>
  </diagram>
</mxfile>
